<svg width="170" height="86" viewBox="0 0 170 86" fill="none" xmlns="http://www.w3.org/2000/svg">
<g clip-path="url(#clip0_689_1430)">
<path d="M170 0.5H0V85.5H170V0.5Z" fill="#ED1B2F"/>
<path d="M131.201 28.8756C132.338 28.8756 133.276 29.8289 133.276 30.9844C133.276 32.14 132.338 33.0933 131.201 33.0933C130.064 33.0933 129.126 32.14 129.126 30.9844C129.126 30.9844 129.126 30.9844 129.126 30.9556C129.154 29.8289 130.064 28.8756 131.201 28.8756ZM150.986 51.12C150.9 52.0444 150.474 52.6511 148.74 53.1133C147.376 53.5467 147.546 54.2689 148.911 54.3267C151.611 53.8644 154.368 53.8355 157.069 54.24C158.377 54.24 158.149 53.3733 157.353 52.9978C155.42 52.2467 155.107 52.2178 154.71 50.2822L154.567 30.7822C154.567 29.6556 154.994 28.3556 153.8 28.6444C151.583 29.5111 151.412 29.5978 149.394 30.2911C148.342 30.7533 148.74 31.2733 149.508 31.5333C150.303 31.7933 150.815 32.5733 150.73 33.44L150.986 51.12ZM139.615 50.9756C139.53 51.9 139.104 52.5067 137.398 52.9689C136.034 53.4022 136.204 54.1244 137.569 54.1822C140.269 53.72 143.026 53.6911 145.727 54.1244C147.034 54.1244 146.807 53.2578 146.011 52.8533C144.078 52.1022 143.765 52.0733 143.368 50.1667L143.225 30.6955C143.225 29.5689 143.652 28.2689 142.458 28.5578C140.241 29.4244 140.07 29.5111 138.052 30.2044C136.972 30.6667 137.398 31.1867 138.166 31.4467C138.961 31.7067 139.473 32.4867 139.388 33.3244L139.615 50.9756ZM129.24 43.32C129.154 42.3378 129.012 41.5867 127.875 41.2111C127.079 41.1533 126.681 40.4022 127.875 39.9689C129.524 39.5933 131.031 38.7844 132.281 37.6578C132.821 37.3689 133.475 37.6 133.134 38.5822C133.049 39.2467 132.992 39.9111 132.992 40.5756V50.7156C133.077 52.3622 134.356 52.6511 135.181 52.9689C136.005 53.2867 136.09 54.2689 135.124 54.2978C131.542 53.8067 130.746 53.7489 127.307 54.4422C126.141 54.4422 125.914 53.5756 127.307 53.0556C128.7 52.5356 129.211 52.3044 129.297 51.0622V43.3489L129.24 43.32ZM97.4877 41.4422C98.3121 32.7756 103.827 29.1644 111.587 28.5C119.774 28.5578 120.968 29.1067 120.854 33.7C120.911 35.3467 119.802 35.7222 119.035 33.8733C118.352 32.2267 117.016 30.9267 115.339 30.3489C108.261 28.7889 103.031 33.3533 102.747 41.0955C102.292 52.0444 114.43 55.2511 116.96 51.1489C117.5 50.08 117.5 47.2489 117.414 44.9089C116.988 43.3489 115.51 43.4933 114.089 43.4644C112.554 43.58 112.013 41.8178 114.089 41.8467C117.67 41.9622 121.28 41.8756 124.862 41.5867C126.34 41.6444 126.454 42.9733 124.635 43.1756C123.867 43.32 122.247 43.32 122.019 44.5911C121.82 51.2356 123.384 51.9 118.381 53.72C112.013 55.2222 105.163 54.5289 101.268 50.7444C98.7953 48.3467 97.4024 44.9667 97.4877 41.4422ZM81.0574 45.92C81.7681 38.6978 87.7091 37.0222 90.7791 36.9933C94.4177 37.1089 95.5547 38.2933 95.5832 39.5067C95.7253 40.2867 95.2136 41.0089 94.4461 41.1244C94.2471 41.1533 94.0197 41.1533 93.8207 41.0955C91.8309 40.5755 92.2004 38.4956 89.5568 38.2933C86.5721 38.7267 84.7528 42.1067 85.2929 46.1511C85.833 50.1955 89.699 53.2289 94.4745 50.7444C95.64 50.4844 95.7253 51.4378 94.7872 52.1022C86.032 57.5044 80.7447 49.7911 81.1427 45.8622H81.0574V45.92ZM54.0526 33.7867C53.8536 31.3022 53.0861 32.0533 51.21 31.3022C49.7034 31.0133 49.5612 29.9156 51.0678 29.8578C53.1714 30.0889 55.2749 30.06 57.3784 29.7422C58.2881 29.8289 59.0271 30.4644 59.2261 31.36C61.1023 35.3756 63.8596 41.3844 65.7357 45.4C66.0768 46.1222 66.2474 46.2667 66.6738 45.3422L72.2453 31.0422C72.8707 29.8289 73.5529 29.54 75.4859 29.7133C77.4189 29.8 79.3803 29.7133 81.3132 29.4822C82.7061 29.54 82.6493 30.6378 81.228 31.0133C79.0676 31.0133 77.9305 31.7644 77.5894 33.3822L77.9021 49.7911C78.2432 52.2467 79.5224 52.3044 81.7965 52.8822C82.8198 53.3444 82.5924 54.0667 81.7112 54.2978C78.0442 53.7778 74.292 53.7489 70.625 54.24C69.2606 54.3555 69.1753 53.2 70.625 52.8822C72.3306 52.5067 72.8138 52.1889 73.1834 51.2644L72.8423 35.4333C72.7854 34.7978 72.3874 34.7978 72.16 35.5489L65.5367 52.2178C64.9114 53.6333 64.6839 53.6333 63.9733 52.5355L56.1277 35.4622C55.9003 34.8844 55.5876 35.0578 55.5592 35.4622L55.616 50.5422C55.8434 52.2756 57.0373 52.3911 59.482 53.1422C60.1642 53.3733 60.221 53.9511 59.6525 54.3267C56.3267 53.8933 52.9724 53.9511 49.6465 54.5C48.9359 54.5 48.6232 53.46 49.7034 53.3156C52.0627 52.6511 52.7165 52.5933 53.0577 51.2356L54.0526 33.7867Z" fill="white"/>
<path d="M13.7151 42.1117C12.4874 37.7483 13.2129 33.725 13.2129 28.8517C17.5657 26.6983 21.8627 26.5 26.5224 26.5C30.5404 26.5 36.2604 27.01 39.7203 28.8517C40.0831 33.4417 40.2784 37.4933 39.1065 42.735C37.3486 50.045 32.9121 56.3917 26.6898 60.5C18.1795 54.89 15.3893 48.09 13.7151 42.1117Z" stroke="white" stroke-width="1.5"/>
<path d="M13.7211 42.1309C12.4831 37.7668 13.2146 33.745 13.2146 28.8674C17.5475 26.6997 21.8803 26.5 26.5226 26.5C30.5459 26.5 36.2574 27.0134 39.718 28.8674C40.0837 33.4597 40.2807 37.5101 39.099 42.7299C37.3265 50.0319 32.8811 56.3926 26.6633 60.5C18.1664 54.8523 15.381 48.0923 13.7211 42.1309Z" fill="#EC1B2E" stroke="white" stroke-width="1.5"/>
<path d="M17.6013 35.5286L13 40.5687C14.7074 48.7589 19.6559 55.9181 26.746 60.5C36.4405 53.9708 39.4212 44.8643 40 40.3969L35.4277 35.5L30.7685 40.1105L26.4855 35.5286L22.2315 40.0533L17.6013 35.5286Z" fill="white"/>
<path d="M18 32.6977C18.7043 32.6686 19.4348 32.7849 20.113 33.0174C20.4522 32.3488 20.7652 31.6221 21 30.8953C20.7391 30.7791 20.5043 31.157 20.4 31.186C20.2174 30.8663 20.0348 30.8663 19.9304 30.8953C19.8261 30.9244 19.8522 31.0116 19.9304 31.0407C20.9217 31.9128 19.4609 32.843 19.2 31.9128C17.9478 32.0291 18.287 30.9244 18.6 30.7791C18.913 30.6337 18.6 30.6628 18.6 30.6337C18.6 30.6046 18.3652 30.6337 18.3391 30.6337C18.3391 30.0814 18.313 29.6744 18 29.5C17.687 29.7907 17.6348 30.1686 17.6348 30.7209C17.6348 30.6628 17.4783 30.6628 17.4 30.6628C17.3217 30.6628 17.1652 30.7209 17.4 30.8081C17.6348 30.8953 18.0522 32.0581 16.8 31.9419C16.5391 32.843 15.1043 31.9419 16.0696 31.0698C16.1217 31.0698 16.2261 30.9826 16.0696 30.9535C15.913 30.8953 15.8087 30.9535 15.6 31.2442C15.4957 31.2442 15.2609 30.8372 15 30.9535C15.2348 31.6802 15.5217 32.3779 15.8609 33.0465C16.5652 32.7558 17.2957 32.6395 18 32.6977ZM18 33.8314C18.5478 33.8314 19.0696 33.8895 19.6174 34.0349C19.7217 33.8023 19.9043 33.3663 20.0087 33.1919C19.3565 32.9593 18.6783 32.843 18 32.8721C17.3217 32.843 16.6435 32.9593 15.9913 33.1919C16.0957 33.3663 16.2783 33.7733 16.3826 34.064C16.9043 33.9186 17.4522 33.8605 18 33.8605V33.8314ZM19.1478 32.1453L19.4348 32.6105L18.7826 32.5523C18.7565 32.5523 19.1478 32.1453 19.1478 32.1453ZM18.7304 33.1337C18.6 33.1337 18.4957 33.25 18.4957 33.3953C18.4957 33.5407 18.6 33.657 18.7304 33.657C18.8609 33.657 18.9652 33.5407 18.9652 33.3953C18.9652 33.3953 18.9652 33.3953 18.9652 33.3663C18.9652 33.25 18.8609 33.1337 18.7304 33.1337ZM19.4609 33.3081C19.3304 33.3081 19.2522 33.4244 19.2522 33.5698C19.2522 33.7151 19.3565 33.8023 19.487 33.8023C19.6174 33.8023 19.6957 33.686 19.6957 33.5698C19.6957 33.4244 19.5913 33.3081 19.4609 33.3081C19.4609 33.2791 19.4609 33.2791 19.4609 33.3081ZM18 34.5C17.113 34.5 16.4348 34.4128 16.4348 34.2965C16.4348 34.1802 17.087 34.064 18 34.064C18.913 34.064 19.5652 34.1802 19.5652 34.2965C19.5652 34.4128 18.913 34.5 18 34.5ZM18 33.1046C18.1304 33.1046 18.2348 33.2209 18.2348 33.3663C18.2609 33.5116 18.1826 33.657 18.0522 33.657C17.9217 33.686 17.7913 33.5988 17.7913 33.4535C17.7913 33.4244 17.7913 33.3953 17.7913 33.3663C17.7913 33.2209 17.8957 33.1046 18 33.1046ZM17.2957 33.1337C17.4261 33.1337 17.5304 33.25 17.5304 33.3953C17.5304 33.5407 17.4261 33.657 17.2957 33.657C17.1652 33.657 17.0609 33.5407 17.0609 33.3953C17.0609 33.3953 17.0609 33.3953 17.0609 33.3663C17.0609 33.25 17.1652 33.1337 17.2957 33.1337ZM16.5913 33.3081C16.7217 33.3081 16.8 33.4244 16.8 33.5407C16.8 33.686 16.6957 33.7733 16.5913 33.7733C16.487 33.7733 16.3826 33.657 16.3826 33.5407C16.3826 33.4244 16.4609 33.3081 16.5913 33.3081ZM18 31.6512L18.4696 32.5233H17.5304L18 31.6512ZM16.8783 32.1453L16.5913 32.6105L17.2696 32.5523L16.8783 32.1453Z" fill="white"/>
<path d="M35.4693 32.6977C36.2982 32.6686 37.1579 32.7849 37.9561 33.0174C38.386 32.3488 38.7237 31.6512 39 30.8953C38.693 30.7791 38.4167 31.157 38.2939 31.186C38.0789 30.8663 37.864 30.8663 37.7719 30.8953C37.6798 30.9244 37.6798 31.0116 37.7719 31.0407C38.9079 31.9128 37.2193 32.843 36.9123 31.9128C35.4386 32.0291 35.8377 30.9244 36.2061 30.7791C36.5746 30.6337 36.2061 30.6628 36.2061 30.6337C36.2061 30.6046 35.9298 30.6337 35.8991 30.6337C35.8991 30.0814 35.8684 29.6744 35.5 29.5C35.1623 29.6744 35.0702 30.1105 35.1009 30.6628C35.1009 30.5756 34.886 30.6047 34.7939 30.6628C34.7018 30.7209 34.5175 30.7209 34.7939 30.8081C35.0702 30.8953 35.5614 32.0581 34.0877 31.9419C33.7807 32.843 32.0921 31.9419 33.2281 31.0698C33.2895 31.0698 33.4123 30.9826 33.2281 30.9244C33.0439 30.8663 32.9211 30.9244 32.7061 31.2442C32.5833 31.2442 32.2763 30.8372 32 30.9244C32.2763 31.6512 32.6447 32.3488 33.0439 33.0465C33.8421 32.7849 34.6711 32.6686 35.4693 32.6977ZM35.4693 33.8314C36.114 33.8314 36.7588 33.8895 37.3728 34.0349C37.4956 33.8023 37.7105 33.3663 37.8333 33.1919C37.0658 32.9593 36.2675 32.843 35.4693 32.8721C34.6711 32.843 33.8728 32.9593 33.1053 33.1919C33.2281 33.3663 33.443 33.7733 33.5658 34.064C34.1798 33.9186 34.7939 33.8605 35.4079 33.8605L35.4693 33.8314ZM36.8202 32.1453L37.1579 32.6105L36.3904 32.5523L36.8202 32.1453ZM36.3597 33.1337C36.2061 33.1046 36.0526 33.1919 36.0526 33.3372C36.0219 33.4826 36.114 33.6279 36.2675 33.6279C36.2982 33.6279 36.329 33.6279 36.3597 33.6279C36.5132 33.5988 36.6053 33.4535 36.5746 33.3372C36.5439 33.25 36.4518 33.1628 36.3597 33.1337ZM37.1886 33.3081C37.0351 33.3081 36.943 33.4244 36.943 33.5407C36.943 33.686 37.0658 33.7733 37.1886 33.7733C37.3421 33.7733 37.4342 33.657 37.4342 33.5407C37.4342 33.4244 37.3114 33.3081 37.1886 33.3081ZM35.4693 34.5C34.4254 34.5 33.6272 34.4128 33.6272 34.2965C33.6272 34.1802 34.3947 34.064 35.4693 34.064C36.5439 34.064 37.3114 34.1802 37.3114 34.2965C37.3114 34.4128 36.5439 34.5 35.4693 34.5ZM35.4693 33.1046C35.6228 33.1046 35.7456 33.2209 35.7456 33.3663C35.7456 33.5116 35.6228 33.6279 35.4693 33.6279C35.3158 33.6279 35.193 33.5116 35.193 33.3663C35.2237 33.2209 35.3158 33.1046 35.4693 33.1046ZM34.6404 33.1337C34.7939 33.1628 34.886 33.3081 34.8553 33.4244C34.8246 33.5407 34.7325 33.6279 34.6404 33.6279C34.4868 33.5988 34.3947 33.4535 34.4254 33.3372C34.4254 33.25 34.5175 33.1628 34.6404 33.1337ZM33.8114 33.3081C33.9649 33.3081 34.057 33.4244 34.057 33.5407C34.057 33.686 33.9342 33.7733 33.8114 33.7733C33.6886 33.7733 33.5658 33.657 33.5658 33.5407C33.5351 33.4244 33.6579 33.3081 33.8114 33.3081ZM35.4693 31.6512L36.0219 32.5233H34.9167L35.4693 31.6512ZM34.1491 32.1453L33.8114 32.6105L34.5482 32.5523L34.1184 32.1453H34.1491Z" fill="white"/>
<path d="M17.1985 44.0381C17.2552 43.8927 17.4254 43.4563 17.4821 43.3109C17.4254 43.1654 17.3119 43.0491 17.1418 43.02C17.1985 42.8746 17.4537 42.7 17.397 42.5546C17.3403 42.4382 17.2269 42.4382 17 42.2928C17.0851 42.1474 17.1985 42.031 17.3687 42.0019C17.5104 42.0019 17.5104 41.7692 17.7373 41.6529C17.9925 41.5365 18.2478 41.4783 18.5313 41.5074C19.2119 41.5074 19.7791 42.0892 19.7507 42.7873C19.7507 42.9036 19.7224 43.02 19.694 43.1364C20.3463 44.4453 22.5866 42.7 23.3806 42.7C23.2388 42.9909 23.0119 43.2818 22.8701 43.5727C23.097 43.7181 23.3806 43.5727 23.5791 43.5727C23.409 44.1254 23.0403 44.5908 22.5582 44.8817C22.9269 46.0452 24.2597 45.6089 25.4507 45.4634C25.309 45.8707 24.7985 45.8997 24.6 46.1906C25.0537 46.656 25.4507 47.2087 25.7627 47.8196C25.1104 47.4705 24.4299 47.1796 23.7493 46.9469C22.8134 46.656 21.7925 46.656 20.8567 46.9469C21.0269 47.2087 21.2537 47.4123 21.509 47.5287C21.1403 48.2559 20.4313 47.8196 19.9776 47.6741C19.609 47.9359 19.1552 47.9941 18.7582 47.8196C18.7866 47.6741 18.8433 47.5578 18.9851 47.4705C19.1269 47.2669 18.5597 47.2378 18.4179 46.9469C18.4179 46.6851 18.7015 46.9469 18.8716 46.656C18.4463 45.9288 16.9433 45.7834 17.1985 44.0381ZM18.191 41.9728C18.2761 41.9728 18.3328 42.031 18.3328 42.1183C18.3328 42.2055 18.2761 42.2637 18.191 42.2637C18.106 42.2637 18.0493 42.2055 18.0493 42.1183C18.0493 42.031 18.106 41.9728 18.191 41.9728ZM27.3791 44.2708C27.4358 44.1254 27.606 43.689 27.6627 43.5436C27.606 43.3982 27.4642 43.2818 27.3224 43.2527C27.3791 43.1073 27.6343 42.9327 27.5776 42.7873C27.5209 42.6419 27.4358 42.6709 27.1806 42.5546C27.2657 42.4092 27.4075 42.2928 27.5776 42.2637C27.7194 42.2637 27.7194 42.031 27.9463 41.9146C28.2015 41.7983 28.4567 41.7401 28.7403 41.7692C29.4209 41.7692 29.9881 42.3801 29.9597 43.0782C29.9597 43.1945 29.9313 43.3109 29.903 43.4272C30.5552 44.7362 32.7955 42.9909 33.5896 42.9909C33.4478 43.2818 33.2209 43.5727 33.0791 43.8636C33.306 44.009 33.5896 43.8636 33.8164 43.8636C33.6463 44.4162 33.2776 44.8817 32.7955 45.1725C33.1642 46.3361 34.497 45.8997 35.6881 45.7543C35.5463 46.1615 35.0358 46.1906 34.8373 46.4815C35.291 46.9469 35.6881 47.4996 36 48.0814C35.3478 47.7323 34.6672 47.4414 33.9866 47.2087C33.0507 46.9178 32.0298 46.9178 31.094 47.2087C31.2642 47.4705 31.491 47.6741 31.7463 47.7905C31.3776 48.5177 30.6687 48.0814 30.2149 47.9359C29.8463 48.1977 29.3925 48.2559 28.9672 48.0814C28.9955 47.9359 29.0806 47.8196 29.194 47.7323C29.3358 47.5287 28.7687 47.4996 28.5985 47.2087C28.5985 46.9469 28.8821 47.2087 29.0522 46.9178C28.6836 46.1906 27.1806 46.0452 27.3507 44.2999L27.3791 44.2708ZM28.4 42.1764C28.4851 42.1764 28.5418 42.2346 28.5418 42.3219C28.5418 42.4091 28.4851 42.4673 28.4284 42.4673C28.4284 42.4673 28.4284 42.4673 28.4 42.4673C28.3149 42.4673 28.2582 42.4091 28.2582 42.3219C28.2582 42.2346 28.3149 42.1764 28.4 42.1764ZM22.5015 51.6011C22.5582 51.4556 22.7284 51.0193 22.7851 50.8738C22.7284 50.7284 22.5866 50.6121 22.4448 50.583C22.5015 50.4375 22.7567 50.263 22.7 50.1175C22.6716 49.9721 22.5298 50.0012 22.303 49.8848C22.3881 49.7394 22.5299 49.6231 22.7 49.5649C22.8418 49.5649 22.8418 49.3322 23.0687 49.2158C23.3239 49.0995 23.5791 49.0413 23.8627 49.0704C24.5433 49.0995 25.0821 49.6812 25.0537 50.4084C25.0537 50.5248 25.0254 50.6121 24.997 50.7284C25.6493 52.0374 27.8896 50.2921 28.6836 50.2921C28.5418 50.583 28.3149 50.8738 28.1731 51.1647C28.4 51.3102 28.6836 51.1647 28.9104 51.1647C28.7403 51.7174 28.3716 52.1828 27.8896 52.4737C28.2582 53.6372 29.591 53.2009 30.7821 53.0555C30.6403 53.4627 30.1299 53.4918 29.9313 53.7827C30.3851 54.2481 30.7821 54.8008 31.094 55.3825C30.4418 55.0335 29.7612 54.7426 29.0806 54.5099C28.1448 54.219 27.1239 54.219 26.1881 54.5099C26.3582 54.7717 26.5851 54.9462 26.8403 55.0916C26.4716 55.8189 25.7627 55.3825 25.309 55.2371C24.9403 55.4989 24.4866 55.5571 24.0896 55.3825C24.1179 55.2371 24.1746 55.1207 24.3164 55.0335C24.4582 54.8299 23.891 54.8008 23.7493 54.5099C23.7493 54.2481 24.0328 54.5099 24.203 54.219C23.7776 53.4918 22.2746 53.3464 22.5015 51.6011ZM23.5224 49.5067C23.6075 49.5067 23.6642 49.5649 23.6642 49.6521C23.6642 49.7394 23.6075 49.7976 23.5224 49.7976C23.4373 49.7976 23.3806 49.7394 23.3806 49.6521C23.3806 49.5649 23.4373 49.5067 23.5224 49.5067Z" fill="#EC1B2E"/>
<path d="M26.4863 33.9986C26.2941 34.218 26.2118 34.2806 26.2667 34.4687H26.7608C26.7608 34.2493 26.7059 34.1553 26.4863 33.9986ZM29.3686 27.7938C28.9843 27.9505 28.5726 27.9505 28.1882 27.7938C27.6941 27.4804 27.1176 27.4177 26.5961 27.6058V33.6539C27.0353 33.4659 27.5294 33.4659 27.9686 33.6539C28.4078 33.8106 28.902 33.8419 29.3412 33.7166V27.7938H29.3686ZM29.5333 27.7938L30 28.2952V34.2806L29.5333 33.7792V27.7938ZM29.9451 34.4687L29.451 33.9986C28.9569 34.0926 28.4353 34.0613 27.9412 33.9046C27.3098 33.7792 27.0627 33.6852 26.651 33.9046C26.8706 33.9986 27.0078 34.2493 27.0078 34.5L29.9451 34.4687ZM23.1647 34.4687L23.6588 33.9673C24.1529 34.0613 24.6745 34.0299 25.1686 33.8733C25.8 33.7479 26.0471 33.6539 26.4588 33.8733C26.2392 33.9673 26.102 34.218 26.102 34.4687H23.1647ZM23.4667 27.8878L23 28.3892V34.3747L23.4667 33.8733V27.8878ZM23.6588 27.8878C24.0431 28.0445 24.4549 28.0445 24.8392 27.8878C25.3333 27.5744 25.9098 27.5117 26.4314 27.6998V33.7479C25.9922 33.5599 25.498 33.5599 25.0314 33.7479C24.5922 33.9046 24.1255 33.9359 23.6588 33.8106V27.7938V27.8878Z" fill="white"/>
<path d="M26.957 28.8836C26.9301 28.7086 27.0376 28.5337 27.1989 28.5045C27.2258 28.5045 27.2258 28.5045 27.2527 28.5045C27.3871 28.4753 27.5215 28.592 27.5484 28.7378C27.5484 28.7378 27.5484 28.7378 27.5484 28.767H27.414C27.414 28.6795 27.3602 28.6212 27.2796 28.6212C27.172 28.6212 27.0914 28.7378 27.0914 28.8836C27.0914 29.0295 27.1452 29.1169 27.2527 29.1169C27.3602 29.1169 27.414 29.1169 27.414 28.9711H27.5484C27.5484 29.1169 27.414 29.2628 27.2796 29.2628C27.2796 29.2628 27.2796 29.2628 27.2527 29.2628C27.0914 29.2919 26.9301 29.1461 26.957 28.8836ZM27.629 29.0003C27.6022 28.7961 27.7097 28.6212 27.8978 28.592C27.9247 28.592 27.9516 28.592 27.9785 28.592C28.1398 28.592 28.3011 28.7378 28.3011 28.9128C28.3011 28.942 28.3011 28.9711 28.3011 28.9711C28.3011 29.1753 28.1398 29.3211 27.9785 29.3211C27.7634 29.3503 27.629 29.1753 27.629 29.0003ZM27.7634 28.942C27.7634 29.0878 27.8172 29.2044 27.9785 29.2044C28.1398 29.2044 28.1667 29.0878 28.1667 28.9711C28.1667 28.8253 28.1667 28.7378 27.9785 28.7378C27.7903 28.7378 27.7903 28.7378 27.7634 28.942ZM28.4355 29.4086V28.6795H28.5699L28.8656 29.1753V28.6795H29V29.3794H28.8656L28.5968 28.8836V29.3794L28.4355 29.4086ZM27.5484 30.8085V30.0794H28.0323V30.196H27.6828V30.371H27.9785V30.4877H27.6828V30.8085H27.5484ZM28.1935 30.896V30.1669H28.3548V30.896H28.1935ZM27.6828 32.3542H27.3602V31.6251H27.6828C28.0323 31.6251 27.9516 32.325 27.6828 32.3542ZM27.4946 32.2375H27.629C27.8172 32.2375 27.8441 31.7709 27.629 31.7709H27.4946V32.2375ZM28.0591 32.1209C28.0323 31.9167 28.1667 31.7417 28.328 31.7126H28.3548C28.543 31.7126 28.6774 31.8584 28.6774 32.0625C28.6774 32.0917 28.6774 32.0917 28.6774 32.1209C28.6774 32.325 28.5161 32.4708 28.3548 32.4708C28.1667 32.4708 28.0323 32.2958 28.0591 32.1209ZM28.1935 32.0625C28.1935 32.1792 28.2473 32.325 28.3817 32.325C28.5161 32.325 28.5699 32.2084 28.5699 32.0917C28.5699 31.9459 28.5699 31.8584 28.3817 31.8584C28.1935 31.8584 28.1935 31.8584 28.1935 32.0625ZM24.5376 29.3794V28.592H24.672V29.3794H24.5376ZM24.8602 29.2919V28.5045H24.9946L25.2634 29.0003V28.5045H25.3978V29.2336H25.2634L24.9946 28.7378V29.2336L24.8602 29.2919ZM24.3226 30.896H24V30.1669H24.3226C24.6989 30.196 24.6183 30.8668 24.3226 30.896ZM24.1344 30.7793H24.3226C24.5108 30.7793 24.5376 30.3127 24.3226 30.3127H24.1882V30.7793H24.1344ZM24.6452 30.4293C24.6183 30.2252 24.7527 30.0502 24.9409 30.021C24.9677 30.021 24.9677 30.021 24.9946 30.021C25.1559 30.021 25.3172 30.1669 25.3172 30.3418C25.3172 30.371 25.3172 30.4002 25.3172 30.4002C25.3172 30.6043 25.1559 30.7501 24.9946 30.7501C24.8065 30.7501 24.6452 30.6043 24.6452 30.4293ZM24.8065 30.371C24.8065 30.4877 24.8602 30.6335 24.9946 30.6335C25.1559 30.6335 25.1828 30.546 25.1828 30.4002C25.1828 30.2544 25.1828 30.1669 24.9946 30.1669C24.8065 30.1377 24.8065 30.1377 24.8065 30.371ZM25.4516 30.721V29.9919H25.6667L25.8011 30.546L25.9624 29.9919H26.1774V30.721H26.043V30.1377L25.9355 30.721H25.7742L25.6667 30.1377V30.721H25.4516ZM24.3226 32.5V31.7709H24.457V32.5H24.3226ZM24.6183 32.4125V31.6834H24.7527L25.0484 32.1792V31.6834H25.1828V32.4125H25.0484L24.7796 31.9167V32.4125H24.6183ZM25.3441 32.0042C25.3172 31.8001 25.4516 31.6251 25.6129 31.5959C25.6398 31.5959 25.6398 31.5959 25.6667 31.5959C25.828 31.5959 25.9892 31.7126 25.9892 31.9167C25.9892 31.9459 25.9892 31.975 25.9892 32.0042C26.0161 32.2084 25.8817 32.3833 25.7204 32.4125C25.5323 32.4417 25.371 32.2958 25.3441 32.1209C25.3172 32.0625 25.3172 32.0334 25.3441 32.0042ZM25.4785 31.9459C25.4785 32.0917 25.5323 32.2084 25.6667 32.2084C25.8011 32.2084 25.8548 32.1209 25.8548 31.975C25.8548 31.8292 25.8548 31.7417 25.6667 31.7417C25.4785 31.7417 25.4785 31.7417 25.4785 31.9459Z" fill="#EC1B2E"/>
</g>
<defs>
<clipPath id="clip0_689_1430">
<rect width="170" height="85" fill="white" transform="translate(0 0.5)"/>
</clipPath>
</defs>
</svg>
